<svg width="22" height="19" viewBox="0 0 22 19" fill="none" xmlns="http://www.w3.org/2000/svg">
<path d="M17 15.72C18.2668 15.8235 19.5412 15.6603 20.741 15.241C20.7868 14.6764 20.6718 14.1104 20.4093 13.6084C20.1468 13.1064 19.7476 12.689 19.2578 12.4044C18.768 12.1199 18.2076 11.9798 17.6415 12.0004C17.0755 12.0211 16.5268 12.2015 16.059 12.521M16.999 15.719L17 15.75C17 15.975 16.988 16.197 16.963 16.416C15.1483 17.4571 13.0921 18.0033 11 18C8.82998 18 6.79299 17.424 5.03699 16.416C5.01128 16.1846 4.99892 15.9519 4.99999 15.719M17 15.719C16.9961 14.5856 16.6697 13.4768 16.059 12.522M16.059 12.522C15.5169 11.6718 14.7691 10.972 13.8848 10.4875C13.0005 10.003 12.0083 9.74932 11 9.75C9.99182 9.74948 8.99981 10.0032 8.11571 10.4877C7.23162 10.9723 6.48399 11.6719 5.94199 12.522M5.94199 12.522C5.4742 12.2028 4.92563 12.0226 4.3597 12.0021C3.79378 11.9817 3.23362 12.1218 2.74399 12.4063C2.25435 12.6908 1.85525 13.1081 1.59281 13.6099C1.33038 14.1117 1.21534 14.6776 1.26099 15.242C2.45989 15.6637 3.73461 15.8263 5.00099 15.719M5.94099 12.522C5.33061 13.4769 5.00458 14.5857 5.00099 15.719M14 3.75C14 4.54565 13.6839 5.30871 13.1213 5.87132C12.5587 6.43393 11.7956 6.75 11 6.75C10.2043 6.75 9.44127 6.43393 8.87866 5.87132C8.31606 5.30871 7.99999 4.54565 7.99999 3.75C7.99999 2.95435 8.31606 2.19129 8.87866 1.62868C9.44127 1.06607 10.2043 0.75 11 0.75C11.7956 0.75 12.5587 1.06607 13.1213 1.62868C13.6839 2.19129 14 2.95435 14 3.75V3.75ZM20 6.75C20 7.04547 19.9418 7.33806 19.8287 7.61104C19.7156 7.88402 19.5499 8.13206 19.341 8.34099C19.132 8.54992 18.884 8.71566 18.611 8.82873C18.338 8.9418 18.0455 9 17.75 9C17.4545 9 17.1619 8.9418 16.8889 8.82873C16.616 8.71566 16.3679 8.54992 16.159 8.34099C15.9501 8.13206 15.7843 7.88402 15.6713 7.61104C15.5582 7.33806 15.5 7.04547 15.5 6.75C15.5 6.15326 15.737 5.58097 16.159 5.15901C16.581 4.73705 17.1532 4.5 17.75 4.5C18.3467 4.5 18.919 4.73705 19.341 5.15901C19.7629 5.58097 20 6.15326 20 6.75V6.75ZM6.49999 6.75C6.49999 7.04547 6.44179 7.33806 6.32871 7.61104C6.21564 7.88402 6.04991 8.13206 5.84098 8.34099C5.63204 8.54992 5.38401 8.71566 5.11102 8.82873C4.83804 8.9418 4.54546 9 4.24999 9C3.95451 9 3.66193 8.9418 3.38895 8.82873C3.11596 8.71566 2.86793 8.54992 2.65899 8.34099C2.45006 8.13206 2.28433 7.88402 2.17126 7.61104C2.05818 7.33806 1.99999 7.04547 1.99999 6.75C1.99999 6.15326 2.23704 5.58097 2.65899 5.15901C3.08095 4.73705 3.65325 4.5 4.24999 4.5C4.84672 4.5 5.41902 4.73705 5.84098 5.15901C6.26293 5.58097 6.49999 6.15326 6.49999 6.75V6.75Z" stroke="#005BFF" stroke-width="1.5" stroke-linecap="round" stroke-linejoin="round"/>
</svg>
